<svg width="215" height="94" viewBox="0 0 215 94" fill="none" xmlns="http://www.w3.org/2000/svg">
<g clip-path="url(#clip0_521_13)">
<path d="M13.1396 79C12.5537 79 12.0312 78.7754 11.5723 78.3262L4.58496 70.9434C4.56543 70.9531 4.5459 70.9629 4.52637 70.9727C4.50684 70.9824 4.4873 70.9922 4.46777 71.002C4.44824 71.002 4.41895 71.0117 4.37988 71.0312V74.6055C4.37988 75.8164 3.9502 76.8516 3.09082 77.7109C2.24121 78.5605 1.21094 78.9854 0 78.9854V62.374C0 61.1631 0.429687 60.1328 1.28906 59.2832C2.14844 58.4238 3.17871 57.9941 4.37988 57.9941C5.38574 58.0137 6.3916 58.0234 7.39746 58.0234L8.96484 58.0088L9.36035 57.9941H9.56543L9.81445 58.0088C10.1855 58.0088 10.5518 58.043 10.9131 58.1113C12.4268 58.3848 13.7207 59.0977 14.7949 60.25C15.8594 61.4609 16.4014 62.8867 16.4209 64.5273C16.4111 65.3184 16.2598 66.0801 15.9668 66.8125C15.6641 67.5449 15.249 68.1992 14.7217 68.7754C13.6279 69.9082 12.3291 70.6016 10.8252 70.8555L10.2979 70.9141L14.6631 75.3379C15.3076 76.0898 15.4492 76.8906 15.0879 77.7402C14.7363 78.5801 14.0869 79 13.1396 79ZM7.38281 61.9199C6.38672 61.9199 5.38574 61.9248 4.37988 61.9346V67.0029C5.36621 67.0225 6.34766 67.0273 7.32422 67.0176H8.8916L9.27246 67.0029H9.47754H9.56543H9.63867L9.8584 66.9736C9.93652 66.9541 10.0146 66.9395 10.0928 66.9297C10.708 66.7734 11.1914 66.4561 11.543 65.9775C11.875 65.5186 12.041 65.0205 12.041 64.4834C12.0508 63.9561 11.8945 63.458 11.5723 62.9893C11.2207 62.5205 10.7422 62.1982 10.1367 62.0225C10.0977 62.0127 10.0586 62.0078 10.0195 62.0078C9.91211 61.9785 9.79492 61.959 9.66797 61.9492C9.6582 61.9492 9.64844 61.9492 9.63867 61.9492C9.62891 61.9492 9.61426 61.9492 9.59473 61.9492C9.58496 61.9395 9.56543 61.9346 9.53613 61.9346H9.3457H8.9502L7.38281 61.9199ZM31.3623 69.2002C31.3623 69.21 31.3623 69.2246 31.3623 69.2441C31.5283 70.1426 31.333 70.9189 30.7764 71.5732C30.2295 72.2275 29.502 72.5693 28.5938 72.5986C27.5098 72.5986 26.377 72.5986 25.1953 72.5986C24.0234 72.5889 23.0176 72.584 22.1777 72.584C21.3477 72.5742 20.9131 72.5693 20.874 72.5693C20.9912 72.8525 21.1475 73.1211 21.3428 73.375C21.9287 74.0977 22.6611 74.5029 23.54 74.5908C24.2139 74.6494 24.8486 74.498 25.4443 74.1367C25.7959 73.9121 26.1768 73.7949 26.5869 73.7852H26.8066C27.9004 73.873 28.584 74.3809 28.8574 75.3086C29.1309 76.2363 28.8379 77.042 27.9785 77.7256C27.1777 78.2725 26.2451 78.6533 25.1807 78.8682C24.5166 78.9951 23.8379 79.0293 23.1445 78.9707C21.0156 78.7461 19.2676 77.7842 17.9004 76.085C16.5918 74.3857 16.0254 72.4521 16.2012 70.2842C16.416 68.1064 17.3145 66.2998 18.8965 64.8643C20.5469 63.4287 22.4414 62.7939 24.5801 62.96C25.1367 63.0088 25.6836 63.1211 26.2207 63.2969C26.9922 63.5508 27.7002 63.9219 28.3447 64.4102C29.9268 65.6406 30.9326 67.2373 31.3623 69.2002ZM20.8887 69.4199L26.8945 69.4346C26.377 68.2139 25.4736 67.5156 24.1846 67.3398C23.9111 67.3105 23.6377 67.3203 23.3643 67.3691C22.7979 67.4766 22.2803 67.7354 21.8115 68.1455C21.4111 68.4971 21.1035 68.9219 20.8887 69.4199ZM44.9121 74.5469C45.5176 75.0938 45.7812 75.7432 45.7031 76.4951C45.625 77.2373 45.2295 77.8037 44.5166 78.1943C43.4521 78.7314 42.334 79 41.1621 79C40.498 79 39.834 78.9072 39.1699 78.7217C37.1094 78.1162 35.5615 76.8516 34.5264 74.9277C33.5596 73.0234 33.3594 71.0166 33.9258 68.9072C34.541 66.8076 35.7568 65.1963 37.5732 64.0732C39.458 62.9697 41.4355 62.6963 43.5059 63.2529C43.8477 63.3506 44.1748 63.4678 44.4873 63.6045C45.2686 64.0049 45.6934 64.6006 45.7617 65.3916C45.8398 66.1826 45.5371 66.8467 44.8535 67.3838C44.1797 67.8428 43.4668 67.9209 42.7148 67.6182C42.5879 67.5596 42.4561 67.5107 42.3193 67.4717C42.0459 67.4033 41.7725 67.3691 41.499 67.3691C40.9326 67.3691 40.376 67.5254 39.8291 67.8379C38.999 68.3555 38.4375 69.1074 38.1445 70.0938C37.8809 71.0801 37.9736 72.0127 38.4229 72.8916C38.8623 73.7119 39.5068 74.2441 40.3564 74.4883C41.1377 74.6934 41.8799 74.6201 42.583 74.2686C43.4131 73.9072 44.1895 74 44.9121 74.5469ZM47.959 78.9707V67.3545C47.959 66.1436 48.3887 65.1133 49.248 64.2637C50.1074 63.4043 51.1426 62.9746 52.3535 62.9746V74.5762C52.3535 75.7871 51.9238 76.8223 51.0645 77.6816C50.2051 78.541 49.1699 78.9707 47.959 78.9707ZM50.1562 60.5137C49.3848 60.5137 48.7207 60.2402 48.1641 59.6934C47.6172 59.1465 47.3438 58.4824 47.3438 57.7012C47.3438 56.9297 47.6172 56.2705 48.1641 55.7236C48.7207 55.1768 49.3848 54.9033 50.1562 54.9033C50.9277 54.9033 51.5869 55.1768 52.1338 55.7236C52.6904 56.2705 52.9688 56.9297 52.9688 57.7012C52.9688 58.4824 52.6904 59.1465 52.1338 59.6934C51.5869 60.2402 50.9277 60.5137 50.1562 60.5137ZM65.0977 63.2529C67.1777 63.8975 68.7109 65.1426 69.6973 66.9883C70.6836 68.834 70.8984 70.8604 70.3418 73.0674C69.7949 74.874 68.8184 76.3145 67.4121 77.3887C66.0059 78.4531 64.4531 78.9854 62.7539 78.9854C62.0898 78.9854 61.4209 78.8926 60.7471 78.707C60.0635 78.5117 59.4238 78.2285 58.8281 77.8574V85.577C57.6172 85.577 56.582 85.147 55.7227 84.288C54.8633 83.438 54.4336 82.408 54.4336 81.1973V67.3252C54.4336 66.1143 54.8584 65.084 55.708 64.2344C56.5674 63.375 57.5977 62.9453 58.7988 62.9453V64.3076C58.916 64.2295 59.0381 64.1514 59.165 64.0732C61.0498 62.9697 63.0273 62.6963 65.0977 63.2529ZM66.1084 71.8809C66.3623 70.875 66.2842 69.957 65.874 69.127C65.4639 68.2969 64.8096 67.7451 63.9111 67.4717C63.6377 67.3936 63.3643 67.3545 63.0908 67.3545C62.5244 67.3545 61.9678 67.5156 61.4209 67.8379C60.5908 68.3555 60.0293 69.1025 59.7363 70.0791C59.4727 71.0752 59.5605 72.0127 60 72.8916C60.4492 73.7119 61.0938 74.2441 61.9336 74.4883C62.8516 74.7129 63.7012 74.5811 64.4824 74.0928C65.2637 73.6045 65.8057 72.8672 66.1084 71.8809ZM87.6709 69.2002C87.6709 69.21 87.6709 69.2246 87.6709 69.2441C87.8369 70.1426 87.6416 70.9189 87.085 71.5732C86.5381 72.2275 85.8105 72.5693 84.9023 72.5986C83.8184 72.5986 82.6855 72.5986 81.5039 72.5986C80.332 72.5889 79.3262 72.584 78.4863 72.584C77.6562 72.5742 77.2217 72.5693 77.1826 72.5693C77.2998 72.8525 77.4561 73.1211 77.6514 73.375C78.2373 74.0977 78.9697 74.5029 79.8486 74.5908C80.5225 74.6494 81.1572 74.498 81.7529 74.1367C82.1045 73.9121 82.4854 73.7949 82.8955 73.7852H83.1152C84.209 73.873 84.8926 74.3809 85.166 75.3086C85.4395 76.2363 85.1465 77.042 84.2871 77.7256C83.4863 78.2725 82.5537 78.6533 81.4893 78.8682C80.8252 78.9951 80.1465 79.0293 79.4531 78.9707C77.3242 78.7461 75.5762 77.7842 74.209 76.085C72.9004 74.3857 72.334 72.4521 72.5098 70.2842C72.7246 68.1064 73.623 66.2998 75.2051 64.8643C76.8555 63.4287 78.75 62.7939 80.8887 62.96C81.4453 63.0088 81.9922 63.1211 82.5293 63.2969C83.3008 63.5508 84.0088 63.9219 84.6533 64.4102C86.2354 65.6406 87.2412 67.2373 87.6709 69.2002ZM77.1973 69.4199L83.2031 69.4346C82.6855 68.2139 81.7822 67.5156 80.4932 67.3398C80.2197 67.3105 79.9463 67.3203 79.6729 67.3691C79.1064 67.4766 78.5889 67.7354 78.1201 68.1455C77.7197 68.4971 77.4121 68.9219 77.1973 69.4199Z" fill="black"/>
<path fill-rule="evenodd" clip-rule="evenodd" d="M94.2173 87.489C94.2173 90.921 97.0524 93.757 100.484 93.757H154.948V89.803H100.484C99.2906 89.803 98.3953 88.908 98.3953 87.714V50.2616C98.3953 49.0679 99.2906 48.1726 100.484 48.1726H112.869C114.809 48.1726 116.898 46.8297 117.793 45.1883L120.031 40.5627C120.181 40.2642 120.927 39.8166 121.225 39.8166H129.507H137.788V35.4136H121.374C119.435 35.4136 117.346 36.7565 116.45 38.3979L114.212 43.0235C114.063 43.322 113.317 43.7696 113.018 43.7696H100.484C97.0524 43.7696 94.2173 46.6047 94.2173 50.0366V87.489ZM164.701 93.757C164.918 93.757 165.094 93.58 165.094 93.363V87.489V64.1851C165.094 63.626 164.636 63.1755 164.077 63.1853L161.75 63.226C161.204 63.2356 160.767 63.6804 160.767 64.2259V87.714V89.823C160.767 91.995 162.528 93.757 164.701 93.757Z" fill="black"/>
<path d="M129.581 85.4009C119.285 85.4009 110.929 77.0444 110.929 66.7486C110.929 56.4528 119.285 48.0968 129.581 48.0968C139.877 48.0968 148.233 56.4528 148.233 66.7486C148.233 77.0444 139.877 85.4009 129.581 85.4009ZM129.581 52.1256C121.524 52.1256 114.958 58.691 114.958 66.7486C114.958 74.8062 121.524 81.3716 129.581 81.3716C137.639 81.3716 144.204 74.8062 144.204 66.7486C144.204 58.691 137.639 52.1256 129.581 52.1256ZM152.411 52.1256C152.411 53.3193 151.516 54.2146 150.322 54.2146C149.128 54.2146 148.233 53.3193 148.233 52.1256C148.233 50.9318 149.128 50.0366 150.322 50.0366C151.516 50.0366 152.411 51.0811 152.411 52.1256ZM102.573 39.7407H110.929V41.8298H102.573V39.7407Z" fill="black"/>
<path d="M129.581 58.3927V56.3037C123.911 56.3037 119.136 60.9293 119.136 66.7487H121.225C121.225 62.1231 124.955 58.3927 129.581 58.3927Z" fill="black"/>
<path d="M195.902 19.6737C196.4 17.4791 196.298 15.1909 195.607 13.0494C194.915 10.9078 193.66 8.99209 191.972 7.50339C190.351 5.92799 188.331 4.82399 186.129 4.30969C183.927 3.79539 181.627 3.89019 179.476 4.58399C179.157 4.29099 178.839 3.99799 178.506 3.69159C173.483 -0.930207 166.018 -1.03771 161.875 3.46359C160.294 5.35319 159.369 7.70559 159.24 10.1664C159.111 12.6271 159.786 15.0631 161.161 17.1075L145.524 34.0997C144.797 34.8905 144.413 35.9379 144.457 37.0116C144.502 38.0854 144.971 39.0974 145.762 39.8251L162.957 55.6485C163.748 56.3762 164.795 56.76 165.869 56.7154C166.943 56.6708 167.955 56.2015 168.682 55.4107L184.586 38.1291C186.646 39.0526 188.941 39.3183 191.158 38.8899C193.374 38.4615 195.405 37.3599 196.973 35.7353C200.995 31.3642 200.452 24.3152 195.902 19.6737ZM148.419 36.7636L150.936 34.028C152.283 34.5111 153.577 35.1289 154.799 35.8721C157.035 37.1833 159.121 38.7352 161.019 40.4999C162.94 42.2498 164.664 44.204 166.161 46.3279C166.941 47.4658 167.624 48.6667 168.204 49.918L165.606 52.7404L148.419 36.7636ZM187.543 34.9159L188.581 33.7869C188.935 33.4031 189.121 32.8946 189.099 32.3734C189.078 31.8521 188.85 31.3609 188.466 31.0076C188.082 30.6544 187.574 30.4681 187.052 30.4897C186.531 30.5114 186.04 30.7392 185.687 31.1231L181.691 35.4652L171.169 46.8994C169.192 43.4175 166.664 40.2787 163.683 37.6052C160.769 34.8544 157.421 32.6041 153.773 30.9451L162.99 20.9293C163.231 20.8208 163.447 20.6651 163.626 20.4714L168.434 15.2464C168.787 14.8625 168.974 14.354 168.952 13.8328C168.93 13.3116 168.702 12.8203 168.319 12.4671C167.935 12.1138 167.426 11.9275 166.905 11.9492C166.384 11.9708 165.893 12.1986 165.539 12.5825L164.008 14.247C163.309 12.9722 163.009 11.5175 163.145 10.0704C163.281 8.62329 163.847 7.24999 164.77 6.12749C167.434 3.23269 172.412 3.42969 175.842 6.58639C176.332 7.03159 176.768 7.53189 177.143 8.07749L177.259 8.18409L177.519 8.42379L177.635 8.53039L177.809 8.69019C177.941 8.78169 178.091 8.84639 178.248 8.88079L178.393 9.01399C178.594 9.05929 178.802 9.06949 179.007 9.04409C179.22 9.00869 179.424 8.93409 179.61 8.82419C181.188 8.03809 182.973 7.76719 184.713 8.04959C186.453 8.33189 188.06 9.15339 189.308 10.3981C190.6 11.4874 191.533 12.9408 191.985 14.5685C192.438 16.1962 192.389 17.9225 191.845 19.5221C191.845 19.5221 191.837 19.6755 191.799 19.7467L191.779 19.9424C191.742 20.126 191.731 20.3139 191.746 20.5006L191.782 20.694C191.823 20.8595 191.881 21.0203 191.955 21.174L192.172 21.3738C192.253 21.4875 192.356 21.5828 192.476 21.6535C192.476 21.6535 192.563 21.7334 192.607 21.7734L192.809 21.9599C196.24 25.1165 196.862 30.0464 194.185 32.9556C193.352 33.8435 192.297 34.4932 191.13 34.8377C189.962 35.1823 188.724 35.2093 187.543 34.9159Z" fill="black"/>
<path d="M183.802 69.4308C183.802 69.4405 183.802 69.4552 183.802 69.4747C183.968 70.3731 183.772 71.1495 183.216 71.8038C182.669 72.4581 181.941 72.7999 181.033 72.8292C179.949 72.8292 178.816 72.8292 177.635 72.8292C176.463 72.8194 175.457 72.8146 174.617 72.8146C173.787 72.8048 173.353 72.7999 173.313 72.7999C173.431 73.0831 173.587 73.3517 173.782 73.6056C174.368 74.3282 175.101 74.7335 175.979 74.8214C176.653 74.88 177.288 74.7286 177.884 74.3673C178.235 74.1427 178.616 74.0255 179.026 74.0157H179.246C180.34 74.1036 181.023 74.6114 181.297 75.5392C181.57 76.4669 181.277 77.2726 180.418 77.9562C179.617 78.503 178.685 78.8839 177.62 79.0987C176.956 79.2257 176.277 79.2599 175.584 79.2013C173.455 78.9767 171.707 78.0147 170.34 76.3155C169.031 74.6163 168.465 72.6827 168.641 70.5147C168.855 68.337 169.754 66.5304 171.336 65.0948C172.986 63.6593 174.881 63.0245 177.02 63.1905C177.576 63.2394 178.123 63.3517 178.66 63.5274C179.432 63.7813 180.14 64.1524 180.784 64.6407C182.366 65.8712 183.372 67.4679 183.802 69.4308ZM173.328 69.6505L179.334 69.6651C178.816 68.4444 177.913 67.7462 176.624 67.5704C176.351 67.5411 176.077 67.5509 175.804 67.5997C175.237 67.7071 174.72 67.9659 174.251 68.3761C173.851 68.7276 173.543 69.1524 173.328 69.6505ZM198.86 65.4757C199.485 66.0421 200.076 66.8673 200.633 67.9513C201.189 69.0353 201.468 70.4513 201.468 72.1993V79.2306C200.257 79.2306 199.222 78.8009 198.362 77.9415C197.513 77.0821 197.088 76.047 197.088 74.836V72.1993C197.088 70.6466 196.668 69.4649 195.828 68.6544C195.086 67.9806 194.197 67.6437 193.162 67.6437C192.615 67.6437 191.966 67.8243 191.214 68.1856C190.472 68.5372 190.071 69.2013 190.013 70.1778V79.2306C188.792 79.2306 187.757 78.8106 186.907 77.9708C186.067 77.131 185.628 76.086 185.589 74.836L185.516 67.5704C185.516 66.3692 185.94 65.3439 186.79 64.4942C187.649 63.6349 188.685 63.2052 189.896 63.2052V63.9083C190.882 63.4786 191.971 63.2638 193.162 63.2638C195.33 63.2638 197.229 64.0011 198.86 65.4757ZM205.364 73.6349C206.165 73.4884 206.839 73.7081 207.386 74.294C207.542 74.4796 207.732 74.6261 207.957 74.7335C208.23 74.8605 208.533 74.919 208.865 74.9093C209.207 74.8897 209.495 74.8116 209.729 74.6749C209.837 74.6163 209.915 74.5577 209.964 74.4991C210.022 74.4405 210.062 74.3868 210.081 74.338C210.081 74.338 210.081 74.3331 210.081 74.3233C210.101 74.2745 210.115 74.211 210.125 74.1329C210.125 74.1231 210.125 74.1134 210.125 74.1036C210.125 74.0841 210.125 74.0694 210.125 74.0597C210.125 74.0499 210.125 74.045 210.125 74.045C210.125 74.0646 210.13 74.0792 210.14 74.089C210.149 74.1183 210.159 74.1378 210.169 74.1476C210.179 74.1573 210.179 74.1622 210.169 74.1622C210.169 74.1622 210.164 74.1524 210.154 74.1329C210.096 74.0841 209.974 74.006 209.788 73.8985C209.407 73.713 208.904 73.5177 208.279 73.3126C208.182 73.2735 208.074 73.2345 207.957 73.1954C207.449 73.0294 206.888 72.8146 206.272 72.5509C205.901 72.3946 205.506 72.1798 205.086 71.9063C204.656 71.6329 204.241 71.2325 203.841 70.7052C203.44 70.1485 203.187 69.5333 203.079 68.8595C202.991 68.3028 203.006 67.7218 203.123 67.1163C203.26 66.5011 203.504 65.9396 203.855 65.4317C204.207 64.9337 204.603 64.5284 205.042 64.2159C205.931 63.6007 206.854 63.2345 207.811 63.1173C208.758 62.9708 209.71 63.0294 210.667 63.2931C211.146 63.4298 211.614 63.63 212.073 63.8937C212.532 64.1573 212.947 64.4942 213.318 64.9044L213.348 64.919C213.855 65.5343 213.997 66.1837 213.772 66.8673C213.548 67.5411 213.05 67.9757 212.278 68.171L211.399 68.3321C210.853 68.42 210.35 68.2931 209.891 67.9513C209.646 67.756 209.344 67.6144 208.982 67.5265C208.621 67.4288 208.245 67.463 207.854 67.629C207.728 67.6778 207.62 67.7511 207.532 67.8487C207.435 67.9562 207.396 68.0733 207.415 68.2003C207.415 68.2003 207.41 68.1954 207.4 68.1856C207.4 68.1759 207.396 68.1661 207.386 68.1563C208.001 68.547 208.665 68.8448 209.378 69.0499C209.446 69.0694 209.515 69.089 209.583 69.1085C210.354 69.3526 211.102 69.6554 211.824 70.0167C212.225 70.212 212.645 70.4952 213.084 70.8663C213.543 71.2569 213.919 71.7892 214.212 72.463C214.349 72.8048 214.437 73.1417 214.476 73.4737C214.476 73.4933 214.476 73.5128 214.476 73.5323C214.485 73.6007 214.495 73.6642 214.505 73.7228V73.9278C214.505 73.9571 214.505 73.9864 214.505 74.0157C214.505 74.1231 214.505 74.2306 214.505 74.338C214.476 74.9142 214.349 75.4806 214.124 76.0372C213.606 77.1603 212.859 77.9806 211.883 78.4981C210.955 79.006 210.003 79.2696 209.026 79.2892C208.04 79.3282 207.078 79.1427 206.141 78.7325C205.193 78.2931 204.407 77.6534 203.782 76.8136C203.782 76.8038 203.777 76.794 203.768 76.7843C203.367 76.1593 203.299 75.5294 203.562 74.8946C203.836 74.2599 204.334 73.8595 205.057 73.6935L205.364 73.6349Z" fill="black"/>
</g>
<defs>
<clipPath id="clip0_521_13">
<rect width="215" height="94" fill="white"/>
</clipPath>
</defs>
</svg>
