<svg width="240" height="131" viewBox="0 0 240 131" fill="none" xmlns="http://www.w3.org/2000/svg">
<path d="M13.1396 97C12.5537 97 12.0312 96.7754 11.5723 96.3262L4.58496 88.9434C4.56543 88.9531 4.5459 88.9629 4.52637 88.9727C4.50684 88.9824 4.4873 88.9922 4.46777 89.002C4.44824 89.002 4.41895 89.0117 4.37988 89.0312V92.6055C4.37988 93.8164 3.9502 94.8516 3.09082 95.7109C2.24121 96.5605 1.21094 96.9854 0 96.9854V80.374C0 79.1631 0.429687 78.1328 1.28906 77.2832C2.14844 76.4238 3.17871 75.9941 4.37988 75.9941C5.38574 76.0137 6.3916 76.0234 7.39746 76.0234L8.96484 76.0088L9.36035 75.9941H9.56543L9.81445 76.0088C10.1855 76.0088 10.5518 76.043 10.9131 76.1113C12.4268 76.3848 13.7207 77.0977 14.7949 78.25C15.8594 79.4609 16.4014 80.8867 16.4209 82.5273C16.4111 83.3184 16.2598 84.0801 15.9668 84.8125C15.6641 85.5449 15.249 86.1992 14.7217 86.7754C13.6279 87.9082 12.3291 88.6016 10.8252 88.8555L10.2979 88.9141L14.6631 93.3379C15.3076 94.0898 15.4492 94.8906 15.0879 95.7402C14.7363 96.5801 14.0869 97 13.1396 97ZM7.38281 79.9199C6.38672 79.9199 5.38574 79.9248 4.37988 79.9346V85.0029C5.36621 85.0225 6.34766 85.0273 7.32422 85.0176H8.8916L9.27246 85.0029H9.47754H9.56543H9.63867L9.8584 84.9736C9.93652 84.9541 10.0146 84.9395 10.0928 84.9297C10.708 84.7734 11.1914 84.4561 11.543 83.9775C11.875 83.5186 12.041 83.0205 12.041 82.4834C12.0508 81.9561 11.8945 81.458 11.5723 80.9893C11.2207 80.5205 10.7422 80.1982 10.1367 80.0225C10.0977 80.0127 10.0586 80.0078 10.0195 80.0078C9.91211 79.9785 9.79492 79.959 9.66797 79.9492C9.6582 79.9492 9.64844 79.9492 9.63867 79.9492C9.62891 79.9492 9.61426 79.9492 9.59473 79.9492C9.58496 79.9395 9.56543 79.9346 9.53613 79.9346H9.3457H8.9502L7.38281 79.9199ZM31.3623 87.2002C31.3623 87.21 31.3623 87.2246 31.3623 87.2441C31.5283 88.1426 31.333 88.9189 30.7764 89.5732C30.2295 90.2275 29.502 90.5693 28.5938 90.5986C27.5098 90.5986 26.377 90.5986 25.1953 90.5986C24.0234 90.5889 23.0176 90.584 22.1777 90.584C21.3477 90.5742 20.9131 90.5693 20.874 90.5693C20.9912 90.8525 21.1475 91.1211 21.3428 91.375C21.9287 92.0977 22.6611 92.5029 23.54 92.5908C24.2139 92.6494 24.8486 92.498 25.4443 92.1367C25.7959 91.9121 26.1768 91.7949 26.5869 91.7852H26.8066C27.9004 91.873 28.584 92.3809 28.8574 93.3086C29.1309 94.2363 28.8379 95.042 27.9785 95.7256C27.1777 96.2725 26.2451 96.6533 25.1807 96.8682C24.5166 96.9951 23.8379 97.0293 23.1445 96.9707C21.0156 96.7461 19.2676 95.7842 17.9004 94.085C16.5918 92.3857 16.0254 90.4521 16.2012 88.2842C16.416 86.1064 17.3145 84.2998 18.8965 82.8643C20.5469 81.4287 22.4414 80.7939 24.5801 80.96C25.1367 81.0088 25.6836 81.1211 26.2207 81.2969C26.9922 81.5508 27.7002 81.9219 28.3447 82.4102C29.9268 83.6406 30.9326 85.2373 31.3623 87.2002ZM20.8887 87.4199L26.8945 87.4346C26.377 86.2139 25.4736 85.5156 24.1846 85.3398C23.9111 85.3105 23.6377 85.3203 23.3643 85.3691C22.7979 85.4766 22.2803 85.7354 21.8115 86.1455C21.4111 86.4971 21.1035 86.9219 20.8887 87.4199ZM44.9121 92.5469C45.5176 93.0938 45.7812 93.7432 45.7031 94.4951C45.625 95.2373 45.2295 95.8037 44.5166 96.1943C43.4521 96.7314 42.334 97 41.1621 97C40.498 97 39.834 96.9072 39.1699 96.7217C37.1094 96.1162 35.5615 94.8516 34.5264 92.9277C33.5596 91.0234 33.3594 89.0166 33.9258 86.9072C34.541 84.8076 35.7568 83.1963 37.5732 82.0732C39.458 80.9697 41.4355 80.6963 43.5059 81.2529C43.8477 81.3506 44.1748 81.4678 44.4873 81.6045C45.2686 82.0049 45.6934 82.6006 45.7617 83.3916C45.8398 84.1826 45.5371 84.8467 44.8535 85.3838C44.1797 85.8428 43.4668 85.9209 42.7148 85.6182C42.5879 85.5596 42.4561 85.5107 42.3193 85.4717C42.0459 85.4033 41.7725 85.3691 41.499 85.3691C40.9326 85.3691 40.376 85.5254 39.8291 85.8379C38.999 86.3555 38.4375 87.1074 38.1445 88.0938C37.8809 89.0801 37.9736 90.0127 38.4229 90.8916C38.8623 91.7119 39.5068 92.2441 40.3564 92.4883C41.1377 92.6934 41.8799 92.6201 42.583 92.2686C43.4131 91.9072 44.1895 92 44.9121 92.5469ZM47.959 96.9707V85.3545C47.959 84.1436 48.3887 83.1133 49.248 82.2637C50.1074 81.4043 51.1426 80.9746 52.3535 80.9746V92.5762C52.3535 93.7871 51.9238 94.8223 51.0645 95.6816C50.2051 96.541 49.1699 96.9707 47.959 96.9707ZM50.1562 78.5137C49.3848 78.5137 48.7207 78.2402 48.1641 77.6934C47.6172 77.1465 47.3438 76.4824 47.3438 75.7012C47.3438 74.9297 47.6172 74.2705 48.1641 73.7236C48.7207 73.1768 49.3848 72.9033 50.1562 72.9033C50.9277 72.9033 51.5869 73.1768 52.1338 73.7236C52.6904 74.2705 52.9688 74.9297 52.9688 75.7012C52.9688 76.4824 52.6904 77.1465 52.1338 77.6934C51.5869 78.2402 50.9277 78.5137 50.1562 78.5137ZM65.0977 81.2529C67.1777 81.8975 68.7109 83.1426 69.6973 84.9883C70.6836 86.834 70.8984 88.8604 70.3418 91.0674C69.7949 92.874 68.8184 94.3145 67.4121 95.3887C66.0059 96.4531 64.4531 96.9854 62.7539 96.9854C62.0898 96.9854 61.4209 96.8926 60.7471 96.707C60.0635 96.5117 59.4238 96.2285 58.8281 95.8574V103.577C57.6172 103.577 56.582 103.147 55.7227 102.288C54.8633 101.438 54.4336 100.408 54.4336 99.1973V85.3252C54.4336 84.1143 54.8584 83.084 55.708 82.2344C56.5674 81.375 57.5977 80.9453 58.7988 80.9453V82.3076C58.916 82.2295 59.0381 82.1514 59.165 82.0732C61.0498 80.9697 63.0273 80.6963 65.0977 81.2529ZM66.1084 89.8809C66.3623 88.875 66.2842 87.957 65.874 87.127C65.4639 86.2969 64.8096 85.7451 63.9111 85.4717C63.6377 85.3936 63.3643 85.3545 63.0908 85.3545C62.5244 85.3545 61.9678 85.5156 61.4209 85.8379C60.5908 86.3555 60.0293 87.1025 59.7363 88.0791C59.4727 89.0752 59.5605 90.0127 60 90.8916C60.4492 91.7119 61.0938 92.2441 61.9336 92.4883C62.8516 92.7129 63.7012 92.5811 64.4824 92.0928C65.2637 91.6045 65.8057 90.8672 66.1084 89.8809ZM87.6709 87.2002C87.6709 87.21 87.6709 87.2246 87.6709 87.2441C87.8369 88.1426 87.6416 88.9189 87.085 89.5732C86.5381 90.2275 85.8105 90.5693 84.9023 90.5986C83.8184 90.5986 82.6855 90.5986 81.5039 90.5986C80.332 90.5889 79.3262 90.584 78.4863 90.584C77.6562 90.5742 77.2217 90.5693 77.1826 90.5693C77.2998 90.8525 77.4561 91.1211 77.6514 91.375C78.2373 92.0977 78.9697 92.5029 79.8486 92.5908C80.5225 92.6494 81.1572 92.498 81.7529 92.1367C82.1045 91.9121 82.4854 91.7949 82.8955 91.7852H83.1152C84.209 91.873 84.8926 92.3809 85.166 93.3086C85.4395 94.2363 85.1465 95.042 84.2871 95.7256C83.4863 96.2725 82.5537 96.6533 81.4893 96.8682C80.8252 96.9951 80.1465 97.0293 79.4531 96.9707C77.3242 96.7461 75.5762 95.7842 74.209 94.085C72.9004 92.3857 72.334 90.4521 72.5098 88.2842C72.7246 86.1064 73.623 84.2998 75.2051 82.8643C76.8555 81.4287 78.75 80.7939 80.8887 80.96C81.4453 81.0088 81.9922 81.1211 82.5293 81.2969C83.3008 81.5508 84.0088 81.9219 84.6533 82.4102C86.2354 83.6406 87.2412 85.2373 87.6709 87.2002ZM77.1973 87.4199L83.2031 87.4346C82.6855 86.2139 81.7822 85.5156 80.4932 85.3398C80.2197 85.3105 79.9463 85.3203 79.6729 85.3691C79.1064 85.4766 78.5889 85.7354 78.1201 86.1455C77.7197 86.4971 77.4121 86.9219 77.1973 87.4199Z" fill="white"/>
<path fill-rule="evenodd" clip-rule="evenodd" d="M94.2173 105.489C94.2173 108.921 97.0524 111.757 100.484 111.757H154.948V107.803H100.484C99.2906 107.803 98.3953 106.908 98.3953 105.714V68.2616C98.3953 67.0679 99.2906 66.1726 100.484 66.1726H112.869C114.809 66.1726 116.898 64.8297 117.793 63.1883L120.031 58.5627C120.181 58.2642 120.927 57.8166 121.225 57.8166H129.507H137.788V53.4136H121.374C119.435 53.4136 117.346 54.7565 116.45 56.3979L114.212 61.0235C114.063 61.322 113.317 61.7696 113.018 61.7696H100.484C97.0524 61.7696 94.2173 64.6047 94.2173 68.0366V105.489ZM164.701 111.757C164.918 111.757 165.094 111.58 165.094 111.363V105.489V82.1851C165.094 81.626 164.636 81.1755 164.077 81.1853L161.75 81.226C161.204 81.2356 160.767 81.6804 160.767 82.2259V105.714V107.823C160.767 109.995 162.528 111.757 164.701 111.757V111.757Z" fill="white"/>
<path d="M129.581 103.401C119.285 103.401 110.929 95.0445 110.929 84.7487C110.929 74.4529 119.285 66.0969 129.581 66.0969C139.877 66.0969 148.233 74.4529 148.233 84.7487C148.233 95.0445 139.877 103.401 129.581 103.401ZM129.581 70.1257C121.524 70.1257 114.958 76.6911 114.958 84.7487C114.958 92.8063 121.524 99.3717 129.581 99.3717C137.639 99.3717 144.204 92.8063 144.204 84.7487C144.204 76.6911 137.639 70.1257 129.581 70.1257ZM152.411 70.1257C152.411 71.3194 151.516 72.2147 150.322 72.2147C149.128 72.2147 148.233 71.3194 148.233 70.1257C148.233 68.9319 149.128 68.0367 150.322 68.0367C151.516 68.0367 152.411 69.0812 152.411 70.1257ZM102.573 57.7408H110.929V59.8299H102.573V57.7408Z" fill="white"/>
<path d="M129.581 76.3926V74.3036C123.911 74.3036 119.136 78.9292 119.136 84.7486H121.225C121.225 80.123 124.955 76.3926 129.581 76.3926Z" fill="white"/>
<g clip-path="url(#clip0_31_19)">
<path d="M195.902 37.6737C196.4 35.4791 196.298 33.1909 195.607 31.0494C194.915 28.9078 193.66 26.9921 191.972 25.5034C190.351 23.928 188.331 22.824 186.129 22.3097C183.927 21.7954 181.627 21.8902 179.476 22.584C179.157 22.291 178.839 21.998 178.506 21.6916C173.483 17.0698 166.018 16.9623 161.875 21.4636C160.294 23.3532 159.369 25.7056 159.24 28.1664C159.111 30.6271 159.786 33.0631 161.161 35.1075L145.524 52.0997C144.797 52.8905 144.413 53.9379 144.457 55.0116C144.502 56.0854 144.971 57.0974 145.762 57.8251L162.957 73.6485C163.748 74.3762 164.795 74.76 165.869 74.7154C166.943 74.6708 167.955 74.2015 168.682 73.4107L184.586 56.1291C186.646 57.0526 188.941 57.3183 191.158 56.8899C193.374 56.4615 195.405 55.3599 196.973 53.7353C200.995 49.3642 200.452 42.3152 195.902 37.6737ZM148.419 54.7636L150.936 52.028C152.283 52.5111 153.577 53.1289 154.799 53.8721C157.035 55.1833 159.121 56.7352 161.019 58.4999C162.94 60.2498 164.664 62.204 166.161 64.3279C166.941 65.4658 167.624 66.6667 168.204 67.918L165.606 70.7404L148.419 54.7636ZM187.543 52.9159L188.581 51.7869C188.935 51.4031 189.121 50.8946 189.099 50.3734C189.078 49.8521 188.85 49.3609 188.466 49.0076C188.082 48.6544 187.574 48.4681 187.052 48.4897C186.531 48.5114 186.04 48.7392 185.687 49.1231L181.691 53.4652L171.169 64.8994C169.192 61.4175 166.664 58.2787 163.683 55.6052C160.769 52.8544 157.421 50.6041 153.773 48.9451L162.99 38.9293C163.231 38.8208 163.447 38.6651 163.626 38.4714L168.434 33.2464C168.787 32.8625 168.974 32.354 168.952 31.8328C168.93 31.3116 168.702 30.8203 168.319 30.4671C167.935 30.1138 167.426 29.9275 166.905 29.9492C166.384 29.9708 165.893 30.1986 165.539 30.5825L164.008 32.247C163.309 30.9722 163.009 29.5175 163.145 28.0704C163.281 26.6233 163.847 25.25 164.77 24.1275C167.434 21.2327 172.412 21.4297 175.842 24.5864C176.332 25.0316 176.768 25.5319 177.143 26.0775L177.259 26.1841L177.519 26.4238L177.635 26.5304L177.809 26.6902C177.941 26.7817 178.091 26.8464 178.248 26.8808L178.393 27.014C178.594 27.0593 178.802 27.0695 179.007 27.0441C179.22 27.0087 179.424 26.9341 179.61 26.8242C181.188 26.0381 182.973 25.7672 184.713 26.0496C186.453 26.3319 188.06 27.1534 189.308 28.3981C190.6 29.4874 191.533 30.9408 191.985 32.5685C192.438 34.1962 192.389 35.9225 191.845 37.5221C191.845 37.5221 191.837 37.6755 191.799 37.7467L191.779 37.9424C191.742 38.126 191.731 38.3139 191.746 38.5006L191.782 38.694C191.823 38.8595 191.881 39.0203 191.955 39.174L192.172 39.3738C192.253 39.4875 192.356 39.5828 192.476 39.6535C192.476 39.6535 192.563 39.7334 192.607 39.7734L192.809 39.9599C196.24 43.1165 196.862 48.0464 194.185 50.9556C193.352 51.8435 192.297 52.4932 191.13 52.8377C189.962 53.1823 188.724 53.2093 187.543 52.9159Z" fill="white"/>
</g>
<path d="M183.802 87.4307C183.802 87.4404 183.802 87.4551 183.802 87.4746C183.968 88.373 183.772 89.1494 183.216 89.8037C182.669 90.458 181.941 90.7998 181.033 90.8291C179.949 90.8291 178.816 90.8291 177.635 90.8291C176.463 90.8193 175.457 90.8145 174.617 90.8145C173.787 90.8047 173.353 90.7998 173.313 90.7998C173.431 91.083 173.587 91.3516 173.782 91.6055C174.368 92.3281 175.101 92.7334 175.979 92.8213C176.653 92.8799 177.288 92.7285 177.884 92.3672C178.235 92.1426 178.616 92.0254 179.026 92.0156H179.246C180.34 92.1035 181.023 92.6113 181.297 93.5391C181.57 94.4668 181.277 95.2725 180.418 95.9561C179.617 96.5029 178.685 96.8838 177.62 97.0986C176.956 97.2256 176.277 97.2598 175.584 97.2012C173.455 96.9766 171.707 96.0146 170.34 94.3154C169.031 92.6162 168.465 90.6826 168.641 88.5146C168.855 86.3369 169.754 84.5303 171.336 83.0947C172.986 81.6592 174.881 81.0244 177.02 81.1904C177.576 81.2393 178.123 81.3516 178.66 81.5273C179.432 81.7812 180.14 82.1523 180.784 82.6406C182.366 83.8711 183.372 85.4678 183.802 87.4307ZM173.328 87.6504L179.334 87.665C178.816 86.4443 177.913 85.7461 176.624 85.5703C176.351 85.541 176.077 85.5508 175.804 85.5996C175.237 85.707 174.72 85.9658 174.251 86.376C173.851 86.7275 173.543 87.1523 173.328 87.6504ZM198.86 83.4756C199.485 84.042 200.076 84.8672 200.633 85.9512C201.189 87.0352 201.468 88.4512 201.468 90.1992V97.2305C200.257 97.2305 199.222 96.8008 198.362 95.9414C197.513 95.082 197.088 94.0469 197.088 92.8359V90.1992C197.088 88.6465 196.668 87.4648 195.828 86.6543C195.086 85.9805 194.197 85.6436 193.162 85.6436C192.615 85.6436 191.966 85.8242 191.214 86.1855C190.472 86.5371 190.071 87.2012 190.013 88.1777V97.2305C188.792 97.2305 187.757 96.8105 186.907 95.9707C186.067 95.1309 185.628 94.0859 185.589 92.8359L185.516 85.5703C185.516 84.3691 185.94 83.3438 186.79 82.4941C187.649 81.6348 188.685 81.2051 189.896 81.2051V81.9082C190.882 81.4785 191.971 81.2637 193.162 81.2637C195.33 81.2637 197.229 82.001 198.86 83.4756ZM205.364 91.6348C206.165 91.4883 206.839 91.708 207.386 92.2939C207.542 92.4795 207.732 92.626 207.957 92.7334C208.23 92.8604 208.533 92.9189 208.865 92.9092C209.207 92.8896 209.495 92.8115 209.729 92.6748C209.837 92.6162 209.915 92.5576 209.964 92.499C210.022 92.4404 210.062 92.3867 210.081 92.3379C210.081 92.3379 210.081 92.333 210.081 92.3232C210.101 92.2744 210.115 92.2109 210.125 92.1328C210.125 92.123 210.125 92.1133 210.125 92.1035C210.125 92.084 210.125 92.0693 210.125 92.0596C210.125 92.0498 210.125 92.0449 210.125 92.0449C210.125 92.0352 210.125 92.0303 210.125 92.0303C210.125 92.0303 210.125 92.0352 210.125 92.0449C210.125 92.0645 210.13 92.0791 210.14 92.0889C210.149 92.1182 210.159 92.1377 210.169 92.1475C210.179 92.1572 210.179 92.1621 210.169 92.1621C210.169 92.1621 210.164 92.1523 210.154 92.1328C210.096 92.084 209.974 92.0059 209.788 91.8984C209.407 91.7129 208.904 91.5176 208.279 91.3125C208.182 91.2734 208.074 91.2344 207.957 91.1953C207.449 91.0293 206.888 90.8145 206.272 90.5508C205.901 90.3945 205.506 90.1797 205.086 89.9062C204.656 89.6328 204.241 89.2324 203.841 88.7051C203.44 88.1484 203.187 87.5332 203.079 86.8594C202.991 86.3027 203.006 85.7217 203.123 85.1162C203.26 84.501 203.504 83.9395 203.855 83.4316C204.207 82.9336 204.603 82.5283 205.042 82.2158C205.931 81.6006 206.854 81.2344 207.811 81.1172C208.758 80.9707 209.71 81.0293 210.667 81.293C211.146 81.4297 211.614 81.6299 212.073 81.8936C212.532 82.1572 212.947 82.4941 213.318 82.9043L213.348 82.9189C213.855 83.5342 213.997 84.1836 213.772 84.8672C213.548 85.541 213.05 85.9756 212.278 86.1709L211.399 86.332C210.853 86.4199 210.35 86.293 209.891 85.9512C209.646 85.7559 209.344 85.6143 208.982 85.5264C208.621 85.4287 208.245 85.4629 207.854 85.6289C207.728 85.6777 207.62 85.751 207.532 85.8486C207.435 85.9561 207.396 86.0732 207.415 86.2002C207.415 86.2002 207.41 86.1953 207.4 86.1855C207.4 86.1758 207.396 86.166 207.386 86.1562C208.001 86.5469 208.665 86.8447 209.378 87.0498C209.446 87.0693 209.515 87.0889 209.583 87.1084C210.354 87.3525 211.102 87.6553 211.824 88.0166C212.225 88.2119 212.645 88.4951 213.084 88.8662C213.543 89.2568 213.919 89.7891 214.212 90.4629C214.349 90.8047 214.437 91.1416 214.476 91.4736C214.476 91.4932 214.476 91.5127 214.476 91.5322C214.485 91.6006 214.495 91.6641 214.505 91.7227V91.9277C214.505 91.957 214.505 91.9863 214.505 92.0156C214.505 92.123 214.505 92.2305 214.505 92.3379C214.476 92.9141 214.349 93.4805 214.124 94.0371C213.606 95.1602 212.859 95.9805 211.883 96.498C210.955 97.0059 210.003 97.2695 209.026 97.2891C208.04 97.3281 207.078 97.1426 206.141 96.7324C205.193 96.293 204.407 95.6533 203.782 94.8135C203.782 94.8037 203.777 94.7939 203.768 94.7842C203.367 94.1592 203.299 93.5293 203.562 92.8945C203.836 92.2598 204.334 91.8594 205.057 91.6934L205.364 91.6348Z" fill="white"/>
<defs>
<clipPath id="clip0_31_19">
<rect width="62.9428" height="62.9428" fill="white" transform="translate(170.711 0.591675) rotate(42.6216)"/>
</clipPath>
</defs>
</svg>
